# Blender 5.1.2
# www.blender.org
mtllib Flow.mtl
o Plane
v -12.321011 0.000000 12.321011
v 12.321011 0.000000 12.321011
v -12.321011 0.000000 -12.321011
v 12.321011 0.000000 -12.321011
vn -0.0000 1.0000 -0.0000
vt 0.000000 0.000000
vt 1.000000 0.000000
vt 1.000000 1.000000
vt 0.000000 1.000000
s 0
usemtl Material
f 1/1/1 2/2/1 4/3/1 3/4/1
o Cube
v 1.000000 0.865559 0.500000
v 1.000000 1.865559 0.500000
v 1.000000 0.865559 -0.500000
v 1.000000 1.865559 -0.500000
v 2.000000 0.865559 0.500000
v 2.000000 1.865559 0.500000
v 2.000000 0.865559 -0.500000
v 2.000000 1.865559 -0.500000
vn -1.0000 -0.0000 -0.0000
vn -0.0000 -0.0000 -1.0000
vn 1.0000 -0.0000 -0.0000
vn -0.0000 -0.0000 1.0000
vn -0.0000 -1.0000 -0.0000
vn -0.0000 1.0000 -0.0000
vt 0.375000 0.000000
vt 0.625000 0.000000
vt 0.625000 0.250000
vt 0.375000 0.250000
vt 0.625000 0.500000
vt 0.375000 0.500000
vt 0.625000 0.750000
vt 0.375000 0.750000
vt 0.625000 1.000000
vt 0.375000 1.000000
vt 0.125000 0.500000
vt 0.125000 0.750000
vt 0.875000 0.500000
vt 0.875000 0.750000
s 0
usemtl Material.001
f 5/5/2 6/6/2 8/7/2 7/8/2
f 7/8/3 8/7/3 12/9/3 11/10/3
f 11/10/4 12/9/4 10/11/4 9/12/4
f 9/12/5 10/11/5 6/13/5 5/14/5
f 7/15/6 11/10/6 9/12/6 5/16/6
f 12/9/7 8/17/7 6/18/7 10/11/7
o Cube.003
v 1.392824 1.200000 0.500000
v 1.392824 1.400000 0.500000
v 1.592824 1.200000 0.500000
v 1.592824 1.400000 0.500000
v -2.385648 1.200000 2.300586
v -2.385648 1.400000 2.300586
v -2.385648 1.200000 2.100586
v -2.385648 1.400000 2.100586
v 1.392824 1.200000 2.100586
v 1.392824 1.400000 2.100586
v 1.592824 1.200000 2.300586
v 1.592824 1.400000 2.300586
vn -0.0000 -0.0000 -1.0000
vn -0.0000 -1.0000 -0.0000
vn -0.0000 1.0000 -0.0000
vn -1.0000 -0.0000 -0.0000
vn -0.0000 -0.0000 1.0000
vn 1.0000 -0.0000 -0.0000
vt 0.375000 0.250000
vt 0.625000 0.250000
vt 0.625000 0.500000
vt 0.375000 0.500000
vt 0.000000 0.000000
vt 0.375000 0.000000
vt 0.625000 0.000000
s 0
usemtl Material.001
f 13/19/8 14/20/8 16/21/8 15/22/8
f 19/19/9 21/23/9 23/23/9 17/24/9
f 14/20/10 22/23/10 24/23/10 16/21/10
f 17/24/11 18/25/11 20/20/11 19/19/11
f 13/19/11 21/23/11 22/23/11 14/20/11
f 23/23/12 24/23/12 18/25/12 17/24/12
f 19/19/8 20/20/8 22/23/8 21/23/8
f 15/22/9 23/23/9 21/23/9 13/19/9
f 15/22/13 16/21/13 24/23/13 23/23/13
f 20/20/10 18/25/10 24/23/10 22/23/10
o Cube.001
v -1.000000 0.000000 1.000000
v -1.000000 2.000000 1.000000
v -1.000000 0.000000 -1.000000
v -1.000000 2.000000 -1.000000
v 1.000000 0.000000 1.000000
v 1.000000 2.000000 1.000000
v 1.000000 0.000000 -1.000000
v 1.000000 2.000000 -1.000000
vn -1.0000 -0.0000 -0.0000
vn -0.0000 -0.0000 -1.0000
vn 1.0000 -0.0000 -0.0000
vn -0.0000 -0.0000 1.0000
vn -0.0000 -1.0000 -0.0000
vn -0.0000 1.0000 -0.0000
vt 0.375000 0.000000
vt 0.625000 0.000000
vt 0.625000 0.250000
vt 0.375000 0.250000
vt 0.625000 0.500000
vt 0.375000 0.500000
vt 0.625000 0.750000
vt 0.375000 0.750000
vt 0.625000 1.000000
vt 0.375000 1.000000
vt 0.125000 0.500000
vt 0.125000 0.750000
vt 0.875000 0.500000
vt 0.875000 0.750000
s 0
usemtl Material
f 25/26/14 26/27/14 28/28/14 27/29/14
f 27/29/15 28/28/15 32/30/15 31/31/15
f 31/31/16 32/30/16 30/32/16 29/33/16
f 29/33/17 30/32/17 26/34/17 25/35/17
f 27/36/18 31/31/18 29/33/18 25/37/18
f 32/30/19 28/38/19 26/39/19 30/32/19
o Cube.002
v 1.392824 1.390585 -0.484525
v 1.392824 1.190585 -0.484525
v 1.592824 1.390585 -0.484525
v 1.592824 1.190585 -0.484525
v -2.385648 1.390586 -2.285111
v -2.385648 1.190586 -2.285111
v -2.385648 1.390586 -2.085111
v -2.385648 1.190586 -2.085111
v 1.392824 1.390586 -2.085111
v 1.392824 1.190586 -2.085111
v 1.592824 1.390586 -2.285111
v 1.592824 1.190586 -2.285111
vn -0.0000 -0.0000 1.0000
vn -0.0000 1.0000 -0.0000
vn -0.0000 -1.0000 -0.0000
vn -1.0000 -0.0000 -0.0000
vn -0.0000 -0.0000 -1.0000
vn 1.0000 -0.0000 -0.0000
vt 0.375000 0.250000
vt 0.625000 0.250000
vt 0.625000 0.500000
vt 0.375000 0.500000
vt 0.000000 0.000000
vt 0.375000 0.000000
vt 0.625000 0.000000
s 0
usemtl Material.001
f 33/40/20 34/41/20 36/42/20 35/43/20
f 39/40/21 41/44/21 43/44/21 37/45/21
f 34/41/22 42/44/22 44/44/22 36/42/22
f 37/45/23 38/46/23 40/41/23 39/40/23
f 33/40/23 41/44/23 42/44/23 34/41/23
f 43/44/24 44/44/24 38/46/24 37/45/24
f 39/40/20 40/41/20 42/44/20 41/44/20
f 35/43/21 43/44/21 41/44/21 33/40/21
f 35/43/25 36/42/25 44/44/25 43/44/25
f 40/41/22 38/46/22 44/44/22 42/44/22
