# Blender 5.1.2
# www.blender.org
mtllib Movement.mtl
o Green_Cube
v 1.000000 1.999999 -1.000000
v 1.000000 -0.000001 -1.000000
v 1.000000 1.999999 1.000000
v 1.000000 -0.000001 1.000000
v -1.000000 1.999999 -1.000000
v -1.000000 -0.000001 -1.000000
v -1.000000 1.999999 1.000000
v -1.000000 -0.000001 1.000000
vn -0.0000 1.0000 -0.0000
vn -0.0000 -0.0000 1.0000
vn -1.0000 -0.0000 -0.0000
vn -0.0000 -1.0000 -0.0000
vn 1.0000 -0.0000 -0.0000
vn -0.0000 -0.0000 -1.0000
vt 0.625000 0.500000
vt 0.875000 0.500000
vt 0.875000 0.750000
vt 0.625000 0.750000
vt 0.375000 0.750000
vt 0.625000 1.000000
vt 0.375000 1.000000
vt 0.375000 0.000000
vt 0.625000 0.000000
vt 0.625000 0.250000
vt 0.375000 0.250000
vt 0.125000 0.500000
vt 0.375000 0.500000
vt 0.125000 0.750000
s 0
usemtl Material
f 1/1/1 5/2/1 7/3/1 3/4/1
f 4/5/2 3/4/2 7/6/2 8/7/2
f 8/8/3 7/9/3 5/10/3 6/11/3
f 6/12/4 2/13/4 4/5/4 8/14/4
f 2/13/5 1/1/5 3/4/5 4/5/5
f 6/11/6 5/10/6 1/1/6 2/13/6
o Floor
v -12.139577 0.000000 12.139577
v 12.139577 0.000000 12.139577
v -12.139577 0.000000 -12.139577
v 12.139577 0.000000 -12.139577
vn -0.0000 1.0000 -0.0000
vt 0.000000 0.000000
vt 1.000000 0.000000
vt 1.000000 1.000000
vt 0.000000 1.000000
s 0
usemtl Material.001
f 9/15/7 10/16/7 12/17/7 11/18/7
o Plus_Cube
v 1.000000 1.999999 4.127893
v 1.000000 -0.000001 4.127893
v 1.000000 1.999999 6.127893
v 1.000000 -0.000001 6.127893
v -1.000000 1.999999 4.127893
v -1.000000 -0.000001 4.127893
v -1.000000 1.999999 6.127893
v -1.000000 -0.000001 6.127893
vn -0.0000 1.0000 -0.0000
vn -0.0000 -0.0000 1.0000
vn -1.0000 -0.0000 -0.0000
vn -0.0000 -1.0000 -0.0000
vn 1.0000 -0.0000 -0.0000
vn -0.0000 -0.0000 -1.0000
vt 0.625000 0.500000
vt 0.875000 0.500000
vt 0.875000 0.750000
vt 0.625000 0.750000
vt 0.375000 0.750000
vt 0.625000 1.000000
vt 0.375000 1.000000
vt 0.375000 0.000000
vt 0.625000 0.000000
vt 0.625000 0.250000
vt 0.375000 0.250000
vt 0.125000 0.500000
vt 0.375000 0.500000
vt 0.125000 0.750000
s 0
usemtl Plus
f 13/19/8 17/20/8 19/21/8 15/22/8
f 16/23/9 15/22/9 19/24/9 20/25/9
f 20/26/10 19/27/10 17/28/10 18/29/10
f 18/30/11 14/31/11 16/23/11 20/32/11
f 14/31/12 13/19/12 15/22/12 16/23/12
f 18/29/13 17/28/13 13/19/13 14/31/13
o Hatched_Cube
v 1.000000 1.999999 -5.924860
v 1.000000 -0.000001 -5.924860
v 1.000000 1.999999 -3.924860
v 1.000000 -0.000001 -3.924860
v -1.000000 1.999999 -5.924860
v -1.000000 -0.000001 -5.924860
v -1.000000 1.999999 -3.924860
v -1.000000 -0.000001 -3.924860
vn -0.0000 1.0000 -0.0000
vn -0.0000 -0.0000 1.0000
vn -1.0000 -0.0000 -0.0000
vn -0.0000 -1.0000 -0.0000
vn 1.0000 -0.0000 -0.0000
vn -0.0000 -0.0000 -1.0000
vt 0.625000 0.500000
vt 0.875000 0.500000
vt 0.875000 0.750000
vt 0.625000 0.750000
vt 0.375000 0.750000
vt 0.625000 1.000000
vt 0.375000 1.000000
vt 0.375000 0.000000
vt 0.625000 0.000000
vt 0.625000 0.250000
vt 0.375000 0.250000
vt 0.125000 0.500000
vt 0.375000 0.500000
vt 0.125000 0.750000
s 0
usemtl Hetched
f 21/33/14 25/34/14 27/35/14 23/36/14
f 24/37/15 23/36/15 27/38/15 28/39/15
f 28/40/16 27/41/16 25/42/16 26/43/16
f 26/44/17 22/45/17 24/37/17 28/46/17
f 22/45/18 21/33/18 23/36/18 24/37/18
f 26/43/19 25/42/19 21/33/19 22/45/19
o Dotted_Cube
v -3.880597 1.999999 -1.000000
v -3.880597 -0.000001 -1.000000
v -3.880597 1.999999 1.000000
v -3.880597 -0.000001 1.000000
v -5.880597 1.999999 -1.000000
v -5.880597 -0.000001 -1.000000
v -5.880597 1.999999 1.000000
v -5.880597 -0.000001 1.000000
vn -0.0000 1.0000 -0.0000
vn -0.0000 -0.0000 1.0000
vn -1.0000 -0.0000 -0.0000
vn -0.0000 -1.0000 -0.0000
vn 1.0000 -0.0000 -0.0000
vn -0.0000 -0.0000 -1.0000
vt 0.625000 0.500000
vt 0.875000 0.500000
vt 0.875000 0.750000
vt 0.625000 0.750000
vt 0.375000 0.750000
vt 0.625000 1.000000
vt 0.375000 1.000000
vt 0.375000 0.000000
vt 0.625000 0.000000
vt 0.625000 0.250000
vt 0.375000 0.250000
vt 0.125000 0.500000
vt 0.375000 0.500000
vt 0.125000 0.750000
s 0
usemtl Dots
f 29/47/20 33/48/20 35/49/20 31/50/20
f 32/51/21 31/50/21 35/52/21 36/53/21
f 36/54/22 35/55/22 33/56/22 34/57/22
f 34/58/23 30/59/23 32/51/23 36/60/23
f 30/59/24 29/47/24 31/50/24 32/51/24
f 34/57/25 33/56/25 29/47/25 30/59/25
